<svg width="29" height="28" viewBox="0 0 29 28" fill="none" xmlns="http://www.w3.org/2000/svg">
<path fill-rule="evenodd" clip-rule="evenodd" d="M9.0202 1.24363C10.4376 1.18063 10.8895 1.16663 14.5 1.16663C18.1105 1.16663 18.5624 1.18179 19.9786 1.24363C21.3947 1.30546 22.3614 1.52363 23.2072 1.83979C24.093 2.16296 24.8965 2.66813 25.5611 3.32146C26.2377 3.96196 26.7597 4.73663 27.0932 5.59296C27.4219 6.40963 27.6467 7.34296 27.7119 8.70796C27.7772 10.0788 27.7917 10.5151 27.7917 14C27.7917 17.486 27.776 17.9223 27.7119 19.2908C27.6479 20.6558 27.4219 21.5891 27.0932 22.4058C26.7597 23.2622 26.2369 24.0382 25.5611 24.6796C24.8965 25.333 24.093 25.837 23.2072 26.159C22.3614 26.4763 21.3947 26.6933 19.981 26.7563C18.5624 26.8193 18.1105 26.8333 14.5 26.8333C10.8895 26.8333 10.4376 26.8181 9.0202 26.7563C7.60645 26.6945 6.63979 26.4763 5.79395 26.159C4.90694 25.8369 4.10328 25.3321 3.43891 24.6796C2.7627 24.0387 2.23942 23.2632 1.90554 22.407C1.57808 21.5903 1.35333 20.657 1.28808 19.292C1.22283 17.9211 1.20833 17.4848 1.20833 14C1.20833 10.514 1.22404 10.0776 1.28808 8.71029C1.35212 7.34296 1.57808 6.40963 1.90554 5.59296C2.23991 4.73672 2.7636 3.96116 3.44012 3.32029C4.10354 2.66754 4.9064 2.16231 5.79274 1.83979C6.63858 1.52363 7.60524 1.30663 9.01899 1.24363H9.0202ZM19.871 3.55363C18.4694 3.49179 18.0489 3.47896 14.5 3.47896C10.9511 3.47896 10.5306 3.49179 9.12895 3.55363C7.83241 3.61079 7.12916 3.81963 6.66033 3.99579C6.04045 4.22913 5.59699 4.50563 5.13179 4.95479C4.6908 5.36902 4.35142 5.87329 4.13854 6.43063C3.95608 6.88329 3.73979 7.56229 3.68058 8.81413C3.61654 10.1675 3.60324 10.5735 3.60324 14C3.60324 17.4265 3.61654 17.8325 3.68058 19.1858C3.73979 20.4376 3.95608 21.1166 4.13854 21.5693C4.3512 22.1258 4.69074 22.631 5.13179 23.0451C5.56074 23.471 6.08395 23.7988 6.66033 24.0041C7.12916 24.1803 7.83241 24.3891 9.12895 24.4463C10.5306 24.5081 10.9499 24.521 14.5 24.521C18.0501 24.521 18.4694 24.5081 19.871 24.4463C21.1676 24.3891 21.8708 24.1803 22.3397 24.0041C22.9595 23.7708 23.403 23.4943 23.8682 23.0451C24.3092 22.631 24.6488 22.1258 24.8615 21.5693C25.0439 21.1166 25.2602 20.4376 25.3194 19.1858C25.3835 17.8325 25.3967 17.4265 25.3967 14C25.3967 10.5735 25.3835 10.1675 25.3194 8.81413C25.2602 7.56229 25.0439 6.88329 24.8615 6.43063C24.6198 5.83213 24.3334 5.40396 23.8682 4.95479C23.4392 4.52904 22.9169 4.20137 22.3397 3.99579C21.8708 3.81963 21.1676 3.61079 19.871 3.55363V3.55363ZM12.8023 17.9561C13.7504 18.3372 14.8062 18.3886 15.7892 18.1016C16.7722 17.8146 17.6216 17.207 18.1922 16.3826C18.7628 15.5581 19.0192 14.568 18.9177 13.5812C18.8162 12.5945 18.363 11.6724 17.6356 10.9725C17.1719 10.525 16.6112 10.1824 15.9939 9.9693C15.3766 9.75619 14.718 9.67788 14.0656 9.74001C13.4132 9.80214 12.7831 10.0032 12.2208 10.3286C11.6585 10.6541 11.178 11.0958 10.8137 11.6221C10.4495 12.1484 10.2106 12.7461 10.1144 13.3722C10.0181 13.9984 10.0668 14.6373 10.257 15.2431C10.4472 15.8488 10.7741 16.4063 11.2142 16.8755C11.6543 17.3446 12.1967 17.7137 12.8023 17.9561ZM9.66908 9.33563C10.3035 8.7231 11.0566 8.23721 11.8855 7.90571C12.7144 7.57422 13.6028 7.4036 14.5 7.4036C15.3972 7.4036 16.2856 7.57422 17.1145 7.90571C17.9434 8.23721 18.6965 8.7231 19.3309 9.33563C19.9653 9.94815 20.4686 10.6753 20.8119 11.4756C21.1552 12.2759 21.3319 13.1337 21.3319 14C21.3319 14.8662 21.1552 15.724 20.8119 16.5243C20.4686 17.3246 19.9653 18.0518 19.3309 18.6643C18.0497 19.9014 16.3119 20.5963 14.5 20.5963C12.688 20.5963 10.9503 19.9014 9.66908 18.6643C8.38784 17.4272 7.66805 15.7494 7.66805 14C7.66805 12.2505 8.38784 10.5727 9.66908 9.33563V9.33563ZM22.8472 8.38596C23.0044 8.24277 23.1302 8.07059 23.2173 7.8796C23.3043 7.6886 23.3508 7.48269 23.354 7.27404C23.3571 7.0654 23.3169 6.85826 23.2356 6.6649C23.1544 6.47154 23.0338 6.29589 22.8809 6.14834C22.7281 6.00079 22.5462 5.88434 22.3459 5.8059C22.1457 5.72745 21.9311 5.6886 21.715 5.69164C21.4989 5.69468 21.2857 5.73956 21.0879 5.8236C20.89 5.90765 20.7117 6.02917 20.5634 6.18096C20.275 6.47616 20.1171 6.86827 20.1232 7.27404C20.1293 7.67982 20.299 8.06732 20.5962 8.35428C20.8934 8.64123 21.2948 8.80506 21.715 8.81097C22.1353 8.81689 22.5414 8.66443 22.8472 8.38596V8.38596Z" fill="white"/>
</svg>
