<svg width="29" height="29" viewBox="0 0 29 29" fill="none" xmlns="http://www.w3.org/2000/svg">
<path fill-rule="evenodd" clip-rule="evenodd" d="M11.9767 11.4209H16.4645V13.6563C17.1109 12.3706 18.7687 11.2155 21.2591 11.2155C26.0332 11.2155 27.1667 13.7747 27.1667 18.4703V27.1667H22.3333V19.5397C22.3333 16.8656 21.6869 15.3576 20.0411 15.3576C17.7586 15.3576 16.81 16.9828 16.81 19.5385V27.1667H11.9767V11.4209V11.4209ZM3.68875 26.9613H8.52208V11.2155H3.68875V26.9613V26.9613ZM9.21446 6.08125C9.21464 6.48637 9.13429 6.88749 8.97809 7.26129C8.82189 7.63509 8.59295 7.97412 8.30458 8.25867C7.72023 8.83942 6.92927 9.1645 6.10542 9.1625C5.28301 9.16195 4.49388 8.8377 3.90867 8.25988C3.62134 7.97436 3.39317 7.63495 3.23725 7.26111C3.08132 6.88726 3.0007 6.48631 3 6.08125C3 5.26321 3.32625 4.48021 3.90988 3.90263C4.49457 3.32402 5.28404 2.99964 6.10663 3C6.93071 3 7.72096 3.32504 8.30458 3.90263C8.887 4.48021 9.21446 5.26321 9.21446 6.08125Z" fill="white"/>
</svg>
